<svg width="62" height="62" viewBox="0 0 62 62" fill="none" xmlns="http://www.w3.org/2000/svg">
<path d="M43.2139 18.7635C43.2261 18.7635 43.2422 18.7635 43.2584 18.7635C43.6806 18.7635 44.0725 18.8948 44.3937 19.1211L44.3877 19.117C44.622 19.3211 44.7796 19.6079 44.8179 19.9312V19.9372C44.8584 20.1837 44.8806 20.4665 44.8806 20.7554C44.8806 20.8867 44.8765 21.016 44.8664 21.1453V21.1271C44.4119 25.9129 42.4402 37.5187 41.4382 42.8762C41.014 45.1448 40.1797 45.9044 39.3716 45.9771C37.6161 46.1407 36.2828 44.8175 34.5818 43.7024C31.9192 41.955 30.4142 40.8681 27.8304 39.1651C24.8426 37.1995 26.7799 36.1147 28.4809 34.3491C28.9274 33.8844 36.6666 26.8442 36.8181 26.2058C36.8262 26.1674 36.8302 26.125 36.8302 26.0805C36.8302 25.923 36.7716 25.7795 36.6767 25.6704C36.5716 25.6018 36.4403 25.5634 36.303 25.5634C36.2121 25.5634 36.1252 25.5816 36.0444 25.6119L36.0484 25.6098C35.7818 25.6704 31.5287 28.4812 23.2891 34.042C22.3901 34.7511 21.2548 35.1995 20.0184 35.2521H20.0063C18.2548 35.04 16.665 34.6501 15.1559 34.0945L15.3054 34.143C13.4105 33.5248 11.9055 33.1996 12.0348 32.1531C12.1035 31.609 12.8536 31.0522 14.2852 30.4825C23.1039 26.6401 28.9846 24.1075 31.9273 22.8846C35.1737 21.1614 38.9373 19.7433 42.8948 18.8241L43.2119 18.7615L43.2139 18.7635ZM30.7051 0.551758C13.9337 0.592161 0.352173 14.1979 0.352173 30.9754C0.352173 47.7771 13.9721 61.399 30.7758 61.399C47.5795 61.399 61.1994 47.7791 61.1994 30.9754C61.1994 14.1979 47.6179 0.592161 30.8506 0.551758H30.8465C30.7994 0.551758 30.7522 0.551758 30.7051 0.551758Z" fill="#777D85"/>
</svg>
