<svg width="65" height="65" viewBox="0 0 65 65" fill="none" xmlns="http://www.w3.org/2000/svg">
<path fill-rule="evenodd" clip-rule="evenodd" d="M31.5927 0.510688C31.2599 0.713672 31.0054 1.06309 30.8165 1.57632C29.0593 6.35143 27.6798 9.14329 25.3575 12.6239C21.821 17.9249 17.2625 22.3799 11.7105 25.9611C9.66551 27.2803 5.52731 29.3628 3.41738 30.1347C1.04617 31.0023 0.745409 31.1583 0.488085 31.6559C-0.0865898 32.7672 0.409421 33.9679 1.62685 34.4124C7.41215 36.5245 11.6879 38.8634 15.8176 42.1743C22.3167 47.3851 27.3811 54.4145 30.2148 62.1581C30.9767 64.2402 31.3065 64.7263 32.1143 64.9578C32.6566 65.1134 33.715 64.8141 33.9998 64.4247C34.0979 64.2904 34.513 63.2749 34.9224 62.1679C36.2748 58.5105 38.6572 54.0434 40.9272 50.9086C46.0349 43.8546 53.8474 37.9167 61.7853 35.0553C64.0369 34.2435 64.4288 34.0186 64.7556 33.3499C64.9904 32.8697 65.0114 32.658 64.8749 32.1507C64.7836 31.812 64.5842 31.4229 64.4318 31.2863C64.2794 31.1495 63.2306 30.6985 62.1012 30.2838C57.8445 28.7209 52.91 25.9286 49.2481 23.0104C47.2269 21.3998 43.7452 17.9034 42.1135 15.846C38.9316 11.8339 35.9175 6.31067 34.4655 1.83143C33.9856 0.350827 32.7707 -0.207577 31.5927 0.510688Z" fill="#777D85"/>
</svg>
