<svg width="170" height="170" viewBox="0 0 170 170" fill="none" xmlns="http://www.w3.org/2000/svg">
<path d="M52.1945 132.603C54.8586 129.05 59.0397 126.96 63.4798 126.96H105.8C110.24 126.96 114.421 129.05 117.085 132.603L125.549 143.888C129.036 148.538 125.718 155.173 119.906 155.173H49.3732C43.561 155.173 40.2432 148.538 43.7306 143.888L52.1945 132.603Z" fill="#F44740"/>
<g filter="url(#filter0_bi_73_475)">
<path d="M134.013 70.5322C134.013 105.799 95.2196 141.065 84.6397 141.065C74.0597 141.065 35.2666 105.799 35.2666 70.5322C35.2666 43.2642 57.3717 21.1592 84.6397 21.1592C111.908 21.1592 134.013 43.2642 134.013 70.5322Z" fill="#F1F1F1" fill-opacity="0.1"/>
<path d="M134.013 70.5322C134.013 105.799 95.2196 141.065 84.6397 141.065C74.0597 141.065 35.2666 105.799 35.2666 70.5322C35.2666 43.2642 57.3717 21.1592 84.6397 21.1592C111.908 21.1592 134.013 43.2642 134.013 70.5322Z" fill="#C4C4C4" fill-opacity="0.2"/>
<path d="M133.307 70.5322C133.307 87.9265 123.727 105.402 112.752 118.572C107.273 125.147 101.47 130.619 96.3935 134.44C93.8544 136.351 91.5083 137.841 89.4842 138.85C87.4413 139.868 85.7968 140.36 84.6397 140.36C83.4826 140.36 81.838 139.868 79.7952 138.85C77.7711 137.841 75.4249 136.351 72.8859 134.44C67.809 130.619 62.0068 125.147 56.5275 118.572C45.5526 105.402 35.972 87.9265 35.972 70.5322C35.972 43.6538 57.7612 21.8645 84.6397 21.8645C111.518 21.8645 133.307 43.6538 133.307 70.5322Z" stroke="url(#paint0_linear_73_475)" stroke-opacity="0.1" stroke-width="1.41066"/>
</g>
<g filter="url(#filter1_i_73_475)">
<circle cx="84.6397" cy="70.5329" r="21.1599" fill="white" fill-opacity="0.16"/>
</g>
<defs>
<filter id="filter0_bi_73_475" x="14.1068" y="-0.000699997" width="141.066" height="162.226" filterUnits="userSpaceOnUse" color-interpolation-filters="sRGB">
<feFlood flood-opacity="0" result="BackgroundImageFix"/>
<feGaussianBlur in="BackgroundImageFix" stdDeviation="10.5799"/>
<feComposite in2="SourceAlpha" operator="in" result="effect1_backgroundBlur_73_475"/>
<feBlend mode="normal" in="SourceGraphic" in2="effect1_backgroundBlur_73_475" result="shape"/>
<feColorMatrix in="SourceAlpha" type="matrix" values="0 0 0 0 0 0 0 0 0 0 0 0 0 0 0 0 0 0 127 0" result="hardAlpha"/>
<feOffset dy="3.52665"/>
<feGaussianBlur stdDeviation="7.05329"/>
<feComposite in2="hardAlpha" operator="arithmetic" k2="-1" k3="1"/>
<feColorMatrix type="matrix" values="0 0 0 0 1 0 0 0 0 1 0 0 0 0 1 0 0 0 0.4 0"/>
<feBlend mode="normal" in2="shape" result="effect2_innerShadow_73_475"/>
</filter>
<filter id="filter1_i_73_475" x="63.4798" y="49.373" width="42.3198" height="45.846" filterUnits="userSpaceOnUse" color-interpolation-filters="sRGB">
<feFlood flood-opacity="0" result="BackgroundImageFix"/>
<feBlend mode="normal" in="SourceGraphic" in2="BackgroundImageFix" result="shape"/>
<feColorMatrix in="SourceAlpha" type="matrix" values="0 0 0 0 0 0 0 0 0 0 0 0 0 0 0 0 0 0 127 0" result="hardAlpha"/>
<feOffset dy="3.52665"/>
<feGaussianBlur stdDeviation="1.76332"/>
<feComposite in2="hardAlpha" operator="arithmetic" k2="-1" k3="1"/>
<feColorMatrix type="matrix" values="0 0 0 0 1 0 0 0 0 1 0 0 0 0 1 0 0 0 0.4 0"/>
<feBlend mode="normal" in2="shape" result="effect1_innerShadow_73_475"/>
</filter>
<linearGradient id="paint0_linear_73_475" x1="38.3524" y1="26.6095" x2="134.013" y2="26.6095" gradientUnits="userSpaceOnUse">
<stop stop-color="#FD84DC"/>
<stop offset="1" stop-color="#7FD6FA"/>
</linearGradient>
</defs>
</svg>
