<svg width="121" height="121" viewBox="0 0 121 121" fill="none" xmlns="http://www.w3.org/2000/svg">
<circle cx="85.7085" cy="75.6253" r="25.2083" fill="#F44740"/>
<g filter="url(#filter0_bi_73_401)">
<path fill-rule="evenodd" clip-rule="evenodd" d="M52.8244 10.8429C54.7643 10.4911 57.6331 10.083 60.5019 10.083C63.3707 10.083 66.2395 10.4911 68.1794 10.8429C69.7065 11.1198 70.9536 12.1723 71.5839 13.5905L75.6603 22.7623C76.0931 23.7363 76.8235 24.548 77.7466 25.0809L82.0076 27.541C82.9306 28.0739 83.9988 28.3006 85.0587 28.1885L95.0408 27.1327C96.5842 26.9695 98.1193 27.5233 99.1226 28.7073C100.397 30.2114 102.185 32.4918 103.619 34.9763C105.054 37.4607 106.135 40.1492 106.8 42.0052C107.324 43.4661 107.036 45.0724 106.123 46.3274L100.763 53.695C100.136 54.5569 99.7978 55.5953 99.7978 56.6611V63.0812C99.7978 64.147 100.136 65.1854 100.763 66.0473L106.12 73.4115C107.033 74.6665 107.321 76.2728 106.798 77.7338C106.132 79.5897 105.051 82.2782 103.617 84.7626C102.183 87.2471 100.395 89.5275 99.1202 91.0316C98.1168 92.2157 96.5817 92.7695 95.0384 92.6062L86.9034 91.7458C85.8435 91.6337 84.7753 91.8604 83.8523 92.3933L76.993 96.3535C76.07 96.8864 75.3396 97.6982 74.9067 98.6721L71.5839 106.148C70.9536 107.567 69.7065 108.619 68.1794 108.896C66.2395 109.248 63.3707 109.656 60.5019 109.656C57.6331 109.656 54.7643 109.248 52.8244 108.896C51.2973 108.619 50.0502 107.567 49.4198 106.148L46.097 98.6721C45.6642 97.6982 44.9338 96.8864 44.0107 96.3535L37.1516 92.3934C36.2286 91.8605 35.1604 91.6338 34.1005 91.7459L25.9654 92.6063C24.422 92.7696 22.8869 92.2158 21.8836 91.0317C20.609 89.5276 18.8212 87.2472 17.3868 84.7627C15.9524 82.2783 14.8714 79.5898 14.2061 77.7339C13.6823 76.2729 13.9703 74.6666 14.8834 73.4116L20.2412 66.0474C20.8682 65.1855 21.206 64.1471 21.206 63.0813V56.661C21.206 55.5952 20.8682 54.5568 20.2412 53.6949L14.8809 46.3273C13.9678 45.0723 13.6799 43.466 14.2036 42.0051C14.8689 40.1491 15.9499 37.4606 17.3843 34.9762C18.8187 32.4917 20.6065 30.2113 21.8811 28.7072C22.8845 27.5232 24.4196 26.9694 25.963 27.1326L35.9452 28.1884C37.0051 28.3005 38.0733 28.0738 38.9963 27.5409L43.2572 25.0809C44.1802 24.548 44.9106 23.7363 45.3435 22.7623L49.4198 13.5905C50.0502 12.1723 51.2973 11.1198 52.8244 10.8429ZM60.5002 80.6663C71.6379 80.6663 80.6668 71.6374 80.6668 60.4997C80.6668 49.3619 71.6379 40.333 60.5002 40.333C49.3624 40.333 40.3335 49.3619 40.3335 60.4997C40.3335 71.6374 49.3624 80.6663 60.5002 80.6663Z" fill="#F1F1F1" fill-opacity="0.1"/>
<path fill-rule="evenodd" clip-rule="evenodd" d="M52.8244 10.8429C54.7643 10.4911 57.6331 10.083 60.5019 10.083C63.3707 10.083 66.2395 10.4911 68.1794 10.8429C69.7065 11.1198 70.9536 12.1723 71.5839 13.5905L75.6603 22.7623C76.0931 23.7363 76.8235 24.548 77.7466 25.0809L82.0076 27.541C82.9306 28.0739 83.9988 28.3006 85.0587 28.1885L95.0408 27.1327C96.5842 26.9695 98.1193 27.5233 99.1226 28.7073C100.397 30.2114 102.185 32.4918 103.619 34.9763C105.054 37.4607 106.135 40.1492 106.8 42.0052C107.324 43.4661 107.036 45.0724 106.123 46.3274L100.763 53.695C100.136 54.5569 99.7978 55.5953 99.7978 56.6611V63.0812C99.7978 64.147 100.136 65.1854 100.763 66.0473L106.12 73.4115C107.033 74.6665 107.321 76.2728 106.798 77.7338C106.132 79.5897 105.051 82.2782 103.617 84.7626C102.183 87.2471 100.395 89.5275 99.1202 91.0316C98.1168 92.2157 96.5817 92.7695 95.0384 92.6062L86.9034 91.7458C85.8435 91.6337 84.7753 91.8604 83.8523 92.3933L76.993 96.3535C76.07 96.8864 75.3396 97.6982 74.9067 98.6721L71.5839 106.148C70.9536 107.567 69.7065 108.619 68.1794 108.896C66.2395 109.248 63.3707 109.656 60.5019 109.656C57.6331 109.656 54.7643 109.248 52.8244 108.896C51.2973 108.619 50.0502 107.567 49.4198 106.148L46.097 98.6721C45.6642 97.6982 44.9338 96.8864 44.0107 96.3535L37.1516 92.3934C36.2286 91.8605 35.1604 91.6338 34.1005 91.7459L25.9654 92.6063C24.422 92.7696 22.8869 92.2158 21.8836 91.0317C20.609 89.5276 18.8212 87.2472 17.3868 84.7627C15.9524 82.2783 14.8714 79.5898 14.2061 77.7339C13.6823 76.2729 13.9703 74.6666 14.8834 73.4116L20.2412 66.0474C20.8682 65.1855 21.206 64.1471 21.206 63.0813V56.661C21.206 55.5952 20.8682 54.5568 20.2412 53.6949L14.8809 46.3273C13.9678 45.0723 13.6799 43.466 14.2036 42.0051C14.8689 40.1491 15.9499 37.4606 17.3843 34.9762C18.8187 32.4917 20.6065 30.2113 21.8811 28.7072C22.8845 27.5232 24.4196 26.9694 25.963 27.1326L35.9452 28.1884C37.0051 28.3005 38.0733 28.0738 38.9963 27.5409L43.2572 25.0809C44.1802 24.548 44.9106 23.7363 45.3435 22.7623L49.4198 13.5905C50.0502 12.1723 51.2973 11.1198 52.8244 10.8429ZM60.5002 80.6663C71.6379 80.6663 80.6668 71.6374 80.6668 60.4997C80.6668 49.3619 71.6379 40.333 60.5002 40.333C49.3624 40.333 40.3335 49.3619 40.3335 60.4997C40.3335 71.6374 49.3624 80.6663 60.5002 80.6663Z" fill="#C4C4C4" fill-opacity="0.2"/>
<path d="M52.9143 11.3389C54.8398 10.9898 57.6756 10.5872 60.5019 10.5872C63.3282 10.5872 66.1639 10.9898 68.0894 11.3389C69.4384 11.5835 70.5547 12.5161 71.1232 13.7953L75.1996 22.9671C75.6757 24.0384 76.4792 24.9313 77.4945 25.5175L81.7555 27.9776C82.7708 28.5638 83.9458 28.8132 85.1117 28.6899L95.0938 27.6341C96.4859 27.4869 97.8517 27.9873 98.738 29.0332C100.003 30.5262 101.77 32.7807 103.183 35.2284C104.596 37.676 105.665 40.3332 106.326 42.1753C106.788 43.4658 106.539 44.8988 105.715 46.0308L100.355 53.3984C99.6652 54.3464 99.2936 55.4887 99.2936 56.6611V63.0812C99.2936 64.2536 99.6652 65.3958 100.355 66.3439L105.713 73.7082C106.536 74.8401 106.786 76.2731 106.323 77.5637C105.663 79.4058 104.594 82.0629 103.18 84.5106C101.767 86.9582 100.001 89.2127 98.7355 90.7057C97.8492 91.7516 96.4835 92.2521 95.0914 92.1049L86.9564 91.2444C85.7905 91.1211 84.6155 91.3705 83.6002 91.9567L76.7409 95.9169C75.7256 96.5031 74.9222 97.396 74.446 98.4674L71.1232 105.944C70.5547 107.223 69.4384 108.155 68.0894 108.4C66.1639 108.749 63.3282 109.152 60.5019 109.152C57.6756 109.152 54.8398 108.749 52.9143 108.4C51.5654 108.155 50.4491 107.223 49.8805 105.944L46.5578 98.4674C46.0816 97.396 45.2782 96.5031 44.2628 95.9169L37.4037 91.9568C36.3884 91.3706 35.2134 91.1212 34.0475 91.2445L25.9124 92.1049C24.5203 92.2522 23.1545 91.7517 22.2682 90.7058C21.0031 89.2128 19.2365 86.9583 17.8234 84.5107C16.4102 82.063 15.341 79.4059 14.6807 77.5638C14.218 76.2732 14.4675 74.8402 15.291 73.7083L20.6488 66.344C21.3386 65.396 21.7101 64.2537 21.7101 63.0813V56.661C21.7101 55.4886 21.3386 54.3463 20.6488 53.3983L15.2886 46.0307C14.465 44.8987 14.2156 43.4657 14.6782 42.1752C15.3386 40.3331 16.4078 37.6759 17.8209 35.2283C19.2341 32.7806 21.0007 30.5261 22.2658 29.0331C23.1521 27.9872 24.5178 27.4868 25.9099 27.634L35.8922 28.6898C37.0581 28.8131 38.2331 28.5637 39.2484 27.9775L43.5093 25.5175C44.5246 24.9313 45.328 24.0384 45.8042 22.9671L49.8805 13.7953C50.4491 12.5161 51.5654 11.5835 52.9143 11.3389ZM60.5002 81.1705C71.9164 81.1705 81.171 71.9159 81.171 60.4997C81.171 49.0835 71.9164 39.8288 60.5002 39.8288C49.084 39.8288 39.8293 49.0835 39.8293 60.4997C39.8293 71.9159 49.084 81.1705 60.5002 81.1705Z" stroke="url(#paint0_linear_73_401)" stroke-opacity="0.1" stroke-width="1.00833"/>
</g>
<defs>
<filter id="filter0_bi_73_401" x="-1.18147" y="-5.04199" width="123.367" height="129.823" filterUnits="userSpaceOnUse" color-interpolation-filters="sRGB">
<feFlood flood-opacity="0" result="BackgroundImageFix"/>
<feGaussianBlur in="BackgroundImageFix" stdDeviation="7.5625"/>
<feComposite in2="SourceAlpha" operator="in" result="effect1_backgroundBlur_73_401"/>
<feBlend mode="normal" in="SourceGraphic" in2="effect1_backgroundBlur_73_401" result="shape"/>
<feColorMatrix in="SourceAlpha" type="matrix" values="0 0 0 0 0 0 0 0 0 0 0 0 0 0 0 0 0 0 127 0" result="hardAlpha"/>
<feOffset dy="2.52083"/>
<feGaussianBlur stdDeviation="5.04167"/>
<feComposite in2="hardAlpha" operator="arithmetic" k2="-1" k3="1"/>
<feColorMatrix type="matrix" values="0 0 0 0 1 0 0 0 0 1 0 0 0 0 1 0 0 0 0.4 0"/>
<feBlend mode="normal" in2="shape" result="effect2_innerShadow_73_401"/>
</filter>
<linearGradient id="paint0_linear_73_401" x1="16.8534" y1="14.6091" x2="107.06" y2="14.6091" gradientUnits="userSpaceOnUse">
<stop stop-color="#FD84DC"/>
<stop offset="1" stop-color="#7FD6FA"/>
</linearGradient>
</defs>
</svg>
