<svg width="36" height="34" viewBox="0 0 36 34" fill="none" xmlns="http://www.w3.org/2000/svg">
<path d="M12.7898 23.4321C10.2127 23.1017 5.84928 21.7771 2.09973 19.7242C2.22992 23.0206 4.18313 25.0379 10.1641 26.3222C17.3788 27.8715 17.2077 28.0519 18.9615 30.8008C19.2238 25.8526 16.2721 23.8785 12.7898 23.4321Z" fill="white" stroke="white" stroke-width="1.09968"/>
<path d="M19.2628 16.5614C13.4658 14.6078 4.99483 12.9061 1.06215 10.8604C0.63812 14.9858 4.39814 16.378 6.50263 17.0286C8.60713 17.6792 12.9936 18.8266 14.7856 19.3061C16.5776 19.7856 19.4511 20.619 21.7149 23.2601C22.8146 24.5431 24.4912 26.8982 21.7149 31.1412C25.014 29.4917 25.7471 25.8578 25.7471 23.9933C25.7471 22.527 24.2919 18.2561 19.2628 16.5614Z" fill="white" stroke="white" stroke-width="1.09968"/>
<path d="M28.8456 10.8452C22.8112 7.15763 1 1.29044 1 1.29044C1.73312 6.60557 4.1631 7.04154 6.75108 8.19175C9.33907 9.34197 19.3174 10.8015 24.0043 13.3677C28.6913 15.934 29.7554 17.9686 30.6914 21.6368C31.6275 25.305 28.219 29.9175 24.4599 32.2671C28.6721 32.1007 31.7309 28.6015 32.7931 27.1974C36.4451 22.3699 33.9085 13.939 28.8456 10.8452Z" fill="white" stroke="white" stroke-width="1.09968"/>
</svg>
