<svg width="27" height="27" viewBox="0 0 27 27" fill="none" xmlns="http://www.w3.org/2000/svg">
<path d="M16.6317 17.3747C18.6823 17.1118 22.1544 16.0578 25.1379 14.4242C25.0343 17.0473 23.4801 18.6524 18.721 19.6744C12.9801 20.9072 13.1163 21.0508 11.7207 23.2381C11.512 19.3007 13.8607 17.7299 16.6317 17.3747Z" fill="#649AEA" fill-opacity="0.5"/>
<path d="M12.0607 12.7708C16.6734 11.2164 23.4139 9.86229 26.5432 8.23444C26.8807 11.5171 23.8887 12.6249 22.2142 13.1426C20.5396 13.6603 17.0492 14.5733 15.6232 14.9549C14.1973 15.3364 11.9109 15.9995 10.1095 18.1012C9.23444 19.122 7.90034 20.9961 10.1095 24.3723C7.48437 23.0597 6.90101 20.1681 6.90101 18.6845C6.90101 17.5178 8.05894 14.1194 12.0607 12.7708Z" fill="#649AEA" fill-opacity="0.5"/>
<path d="M4.84277 8.62968C9.6445 5.69542 27 1.02679 27 1.02679C26.4167 5.25614 24.4831 5.60304 22.4238 6.51829C20.3645 7.43354 12.4245 8.5949 8.69507 10.6369C4.96559 12.6789 4.11883 14.2979 3.37402 17.2167C2.6292 20.1356 5.34138 23.8059 8.33256 25.6754C4.98087 25.5431 2.54692 22.7586 1.70173 21.6414C-1.20424 17.8001 0.814187 11.0915 4.84277 8.62968Z" fill="#649AEA" fill-opacity="0.5"/>
</svg>
