<svg width="27" height="27" viewBox="0 0 27 27" fill="none" xmlns="http://www.w3.org/2000/svg">
<path d="M10.3683 17.3747C8.31766 17.1118 4.84564 16.0578 1.86206 14.4242C1.96565 17.0473 3.51986 18.6524 8.27899 19.6744C14.0199 20.9072 13.8837 21.0508 15.2793 23.2381C15.4879 19.3007 13.1393 17.7299 10.3683 17.3747Z" fill="#649AEA" fill-opacity="0.5"/>
<path d="M14.9393 12.7708C10.3266 11.2164 3.58607 9.86229 0.456767 8.23444C0.119363 11.5171 3.11128 12.6249 4.78586 13.1426C6.46044 13.6603 9.95082 14.5733 11.3768 14.9549C12.8027 15.3364 15.0892 15.9995 16.8905 18.1012C17.7656 19.122 19.0997 20.9961 16.8905 24.3723C19.5156 23.0597 20.099 20.1681 20.099 18.6845C20.099 17.5178 18.9411 14.1194 14.9393 12.7708Z" fill="#649AEA" fill-opacity="0.5"/>
<path d="M22.1572 8.62968C17.3555 5.69542 -1.14441e-05 1.02679 -1.14441e-05 1.02679C0.583346 5.25614 2.51692 5.60305 4.57623 6.51829C6.63553 7.43354 14.5755 8.5949 18.3049 10.6369C22.0344 12.6789 22.8812 14.2979 23.626 17.2167C24.3708 20.1356 21.6586 23.8059 18.6674 25.6754C22.0191 25.5431 24.4531 22.7587 25.2983 21.6414C28.2042 17.8001 26.1858 11.0915 22.1572 8.62968Z" fill="#649AEA" fill-opacity="0.5"/>
</svg>
