<svg width="37" height="37" viewBox="0 0 37 37" fill="none" xmlns="http://www.w3.org/2000/svg">
<path d="M36 5.86111C36 22.5063 22.5063 36 5.86111 36C5.11013 36 4.36556 35.9726 3.62834 35.9185C2.78232 35.8565 2.35928 35.8256 1.97422 35.6039C1.6553 35.4204 1.35284 35.0949 1.19299 34.7633C1 34.3632 1 33.8963 1 32.9628V27.4847C1 26.6995 1 26.3069 1.12921 25.9706C1.24335 25.6732 1.42873 25.4086 1.66908 25.1998C1.94117 24.9633 2.31009 24.8292 3.04791 24.5608L9.28343 22.2934C10.1419 21.9813 10.5711 21.8252 10.9783 21.8516C11.3374 21.875 11.6829 21.9977 11.9765 22.2057C12.3094 22.4416 12.5444 22.8332 13.0144 23.6166L14.6111 26.2778C19.7637 23.9442 23.9407 19.7617 26.2778 14.6111L23.6166 13.0144C22.8332 12.5444 22.4416 12.3094 22.2057 11.9765C21.9977 11.6829 21.875 11.3374 21.8516 10.9783C21.8252 10.5711 21.9813 10.1419 22.2934 9.28343L24.5608 3.04791C24.8292 2.31009 24.9633 1.94117 25.1998 1.66908C25.4086 1.42873 25.6732 1.24335 25.9706 1.12921C26.3069 1 26.6995 1 27.4847 1H32.9628C33.8963 1 34.3632 1 34.7633 1.19299C35.0949 1.35284 35.4204 1.6553 35.6039 1.97422C35.8256 2.3593 35.8565 2.78232 35.9185 3.62836C35.9726 4.36556 36 5.11013 36 5.86111Z" stroke="white" stroke-width="2" stroke-linecap="round" stroke-linejoin="round"/>
</svg>
