<svg width="62" height="62" viewBox="0 0 62 62" fill="none" xmlns="http://www.w3.org/2000/svg">
<path fill-rule="evenodd" clip-rule="evenodd" d="M48.7846 43.5133C48.0514 45.5888 45.1367 47.3058 42.8124 47.8079C41.2212 48.1457 39.1463 48.413 32.155 45.5157C24.3026 42.2625 13.3988 30.6741 13.3988 22.9624C13.3988 19.0366 15.6623 14.4652 19.6204 14.4652C21.525 14.4652 21.9448 14.5024 22.5715 16.0057C23.3047 17.7769 25.0937 22.1407 25.3066 22.5881C26.1859 24.4232 24.4121 25.4975 23.1252 27.0952C22.7145 27.576 22.2491 28.096 22.7693 28.9907C23.2865 29.8672 25.0754 32.7827 27.704 35.123C31.0993 38.148 33.8526 39.1138 34.8383 39.5246C35.5715 39.8289 36.4478 39.7581 36.9832 39.1859C37.6617 38.4525 38.5044 37.2356 39.3623 36.0366C39.9678 35.1784 40.7375 35.0712 41.5437 35.3755C42.0883 35.5642 49.0097 38.7786 49.3017 39.2929C49.5177 39.6672 49.5178 41.4377 48.7846 43.5133ZM31.081 0.551758H31.0658C14.2932 0.551758 0.651306 14.1978 0.651306 30.9754C0.651306 37.628 2.79619 43.8 6.44399 48.8062L2.6532 60.1111L14.345 56.375C19.155 59.5582 24.8959 61.399 31.081 61.399C47.8536 61.399 61.4986 47.753 61.4986 30.9754C61.4986 14.1978 47.8536 0.551758 31.081 0.551758Z" fill="#777D85"/>
</svg>
