<svg width="62" height="62" viewBox="0 0 62 62" fill="none" xmlns="http://www.w3.org/2000/svg">
<path d="M18.7312 61.3986C28.5513 61.3986 36.512 52.8176 36.512 42.232C36.512 31.6465 28.5513 23.0654 18.7312 23.0654C8.91104 23.0654 0.950439 31.6465 0.950439 42.232C0.950439 52.8176 8.91104 61.3986 18.7312 61.3986Z" fill="#777D85"/>
<path d="M51.0545 58.9739C56.9879 58.9739 61.7978 53.7895 61.7978 47.3937C61.7978 40.9979 56.9879 35.8135 51.0545 35.8135C45.1219 35.8135 40.312 40.9979 40.312 47.3937C40.312 53.7895 45.1215 58.9739 51.0545 58.9739Z" fill="#777D85"/>
<path d="M22.1304 18.9687C25.8028 18.9687 28.7799 15.7596 28.7799 11.8015C28.7799 7.84289 25.8028 4.63379 22.1304 4.63379C18.4581 4.63379 15.4814 7.84289 15.4814 11.8015C15.4814 15.7596 18.4581 18.9687 22.1304 18.9687Z" fill="#777D85"/>
<path d="M46.8786 31.7177C54.8626 31.7177 61.335 24.7412 61.335 16.1349C61.335 7.52826 54.8626 0.551758 46.8786 0.551758C38.8943 0.551758 32.4222 7.52867 32.4222 16.1349C32.4222 24.7412 38.8946 31.7177 46.8786 31.7177Z" fill="#777D85"/>
</svg>
