<svg width="197" height="92" viewBox="0 0 197 92" fill="none" xmlns="http://www.w3.org/2000/svg">
<path d="M1.63902 87.2798V76.7007H10.1172V78.0566H3.08434V87.2798H1.63902ZM19.425 87.2798L18.2479 84.7319H12.6156L11.4385 87.2798H10.008L14.8953 76.6411H16.0426L20.9448 87.2798H19.425ZM13.2116 83.4207H17.6518L15.4317 78.593L13.2116 83.4207ZM25.9036 78.0417L25.4417 82.929C25.2927 84.5084 25.0245 85.616 24.6371 86.2517C24.1802 86.9967 23.4302 87.3692 22.3872 87.3692H22.0296V85.9537H22.2829C22.7895 85.9537 23.1521 85.8097 23.3706 85.5216C23.5991 85.2236 23.768 84.8014 23.8772 84.2551C23.9567 83.8081 24.0262 83.3114 24.0858 82.7651L24.652 76.7007H32.415V87.2798H30.9697V78.0417H25.9036ZM35.6883 87.2798V76.7007H43.9728V78.0417H37.1187V80.9919H41.2163V82.3329H37.1187V85.9388H44.5688V87.2798H35.6883ZM46.8489 87.2798V76.7007H52.3471C53.4398 76.7007 54.304 76.949 54.9397 77.4457C55.5854 77.9324 55.9082 78.7023 55.9082 79.7552C55.9082 80.7883 55.5804 81.5681 54.9248 82.0945C54.2692 82.6111 53.41 82.8694 52.3471 82.8694H48.2942V87.2798H46.8489ZM52.3918 78.0417H48.2942V81.5283H52.3918C52.9977 81.5283 53.4845 81.3843 53.852 81.0962C54.2295 80.8082 54.4182 80.3711 54.4182 79.785C54.4182 78.6228 53.7427 78.0417 52.3918 78.0417ZM58.446 87.2798V76.7007H66.7305V78.0417H59.8764V80.9919H63.974V82.3329H59.8764V85.9388H67.3265V87.2798H58.446ZM70.5304 87.2798H68.9361L71.7076 82.8247C70.9526 82.6657 70.3665 82.3379 69.9493 81.8412C69.5421 81.3346 69.3384 80.6939 69.3384 79.9191C69.3384 77.7735 70.5155 76.7007 72.8698 76.7007H78.4424V87.2798H76.9971V83.0184H73.1678L70.5304 87.2798ZM72.9145 81.6922H76.9971V78.0417H72.9145C72.239 78.0417 71.7225 78.1907 71.3649 78.4887C71.0072 78.7768 70.8284 79.2536 70.8284 79.9191C70.8284 81.1012 71.5238 81.6922 72.9145 81.6922ZM84.6279 78.0417V76.7007H94.8643V78.0417H90.4688V87.2798H89.0234V78.0417H84.6279ZM97.0934 87.2798V76.7007H105.378V78.0417H98.5238V80.9919H102.621V82.3329H98.5238V85.9388H105.974V87.2798H97.0934ZM108.254 87.2798V76.7007H117.492V87.2798H116.047V78.0417H109.699V87.2798H108.254ZM123.599 78.0417L123.137 82.929C122.988 84.5084 122.72 85.616 122.332 86.2517C121.875 86.9967 121.125 87.3692 120.082 87.3692H119.725V85.9537H119.978C120.485 85.9537 120.847 85.8097 121.066 85.5216C121.294 85.2236 121.463 84.8014 121.572 84.2551C121.652 83.8081 121.721 83.3114 121.781 82.7651L122.347 76.7007H130.11V87.2798H128.665V78.0417H123.599ZM133.384 87.2798V76.7007H134.829V85.3428L141.459 76.7007H142.905V87.2798H141.459V78.6079L134.829 87.2798H133.384ZM153.981 85.9388V76.7007H155.427V85.9388H157.066V89.6787H155.769V87.2798H146.188V76.7007H147.634V85.9388H153.981ZM162.951 87.2798V76.7007H172.189V87.2798H170.744V78.0417H164.396V87.2798H162.951ZM174.422 78.0417V76.7007H184.658V78.0417H180.263V87.2798H178.818V78.0417H174.422ZM190.914 76.5219C191.441 76.5219 191.942 76.5666 192.419 76.656C192.896 76.7454 193.358 76.8944 193.805 77.103C194.262 77.3016 194.624 77.5997 194.892 77.997C195.171 78.3943 195.31 78.8711 195.31 79.4274C195.31 79.9837 195.156 80.4853 194.848 80.9323C194.55 81.3694 194.142 81.6624 193.626 81.8114C194.907 82.1988 195.548 82.9737 195.548 84.1359C195.548 84.7418 195.414 85.2733 195.146 85.7302C194.877 86.1772 194.515 86.5199 194.058 86.7583C193.611 86.9967 193.129 87.1705 192.613 87.2798C192.106 87.399 191.565 87.4586 190.989 87.4586C190.055 87.4586 189.176 87.2897 188.351 86.952C187.527 86.6043 186.906 86.0729 186.489 85.3577C186.26 84.9902 186.126 84.6176 186.086 84.2402H187.576C187.785 84.866 188.217 85.3329 188.873 85.6408C189.528 85.9487 190.229 86.1027 190.974 86.1027C191.341 86.1027 191.684 86.0779 192.002 86.0282C192.33 85.9686 192.657 85.8742 192.985 85.7451C193.323 85.616 193.586 85.4173 193.775 85.1491C193.974 84.871 194.073 84.5382 194.073 84.1508C194.073 83.0879 193.174 82.5565 191.376 82.5565H189.826V81.2303H191.436C193.025 81.2303 193.82 80.6542 193.82 79.5019C193.82 78.4192 192.846 77.8778 190.899 77.8778C189.3 77.8778 188.207 78.4539 187.621 79.6062H186.101C186.26 78.9307 186.578 78.3596 187.055 77.8927C187.542 77.4258 188.133 77.0682 188.828 76.8199C189.424 76.6212 190.119 76.5219 190.914 76.5219Z" fill="black"/>
<path d="M82.9474 61.1708C82.9474 55.6711 80.7626 50.3966 76.8737 46.5076C72.9848 42.6187 67.7103 40.434 62.2105 40.434C56.7108 40.434 51.4363 42.6187 47.5474 46.5076C43.6585 50.3966 41.4737 55.671 41.4737 61.1708" stroke="#F44740" stroke-width="8.29474"/>
<path d="M105.906 61.1708C105.906 52.7247 102.512 44.6246 96.4701 38.6524C90.4284 32.6801 82.2341 29.3249 73.6899 29.3249C65.1456 29.3249 56.9513 32.6801 50.9096 38.6524C44.8679 44.6246 41.4737 52.7247 41.4737 61.1708" stroke="#F44740" stroke-width="8.29474"/>
<path d="M131.827 61.1708C131.827 49.3856 127.067 38.0831 118.595 29.7497C110.123 21.4164 98.632 16.7347 86.6504 16.7347C74.6688 16.7347 63.1779 21.4164 54.7056 29.7497C46.2334 38.0831 41.4737 49.3856 41.4737 61.1708" stroke="#F44740" stroke-width="8.29474"/>
<path d="M155.526 61.1708C155.526 46.2429 149.518 31.9264 138.824 21.3708C128.129 10.8152 113.624 4.88507 98.5 4.88507C83.3757 4.88507 68.8708 10.8152 58.1763 21.3708C47.4818 31.9264 41.4737 46.2429 41.4737 61.1708" stroke="#F44740" stroke-width="8.29474"/>
</svg>
