<svg width="150" height="70" viewBox="0 0 150 70" fill="none" xmlns="http://www.w3.org/2000/svg">
<path d="M1.24799 67.3154V59.2602H7.70348V60.2927H2.34848V67.3154H1.24799ZM14.7906 67.3154L13.8943 65.3754H9.60577L8.70949 67.3154H7.62034L11.3416 59.2149H12.2152L15.9478 67.3154H14.7906ZM10.0596 64.377H13.4405L11.75 60.7011L10.0596 64.377ZM19.7236 60.2813L19.3719 64.0026C19.2584 65.2052 19.0542 66.0485 18.7592 66.5326C18.4113 67.0999 17.8403 67.3835 17.0461 67.3835H16.7738V66.3057H16.9667C17.3524 66.3057 17.6285 66.196 17.7949 65.9767C17.9688 65.7498 18.0974 65.4283 18.1806 65.0123C18.2411 64.672 18.2941 64.2938 18.3395 63.8778L18.7706 59.2602H24.6815V67.3154H23.581V60.2813H19.7236ZM27.1738 67.3154V59.2602H33.4818V60.2813H28.263V62.5277H31.383V63.5488H28.263V66.2944H33.9357V67.3154H27.1738ZM35.6718 67.3154V59.2602H39.8582C40.6902 59.2602 41.3482 59.4493 41.8323 59.8275C42.3239 60.1981 42.5697 60.7843 42.5697 61.586C42.5697 62.3726 42.3201 62.9664 41.8209 63.3673C41.3217 63.7606 40.6675 63.9572 39.8582 63.9572H36.7723V67.3154H35.6718ZM39.8922 60.2813H36.7723V62.9361H39.8922C40.3536 62.9361 40.7242 62.8265 41.0041 62.6071C41.2915 62.3878 41.4352 62.055 41.4352 61.6087C41.4352 60.7238 40.9209 60.2813 39.8922 60.2813ZM44.5021 67.3154V59.2602H50.8101V60.2813H45.5912V62.5277H48.7112V63.5488H45.5912V66.2944H51.2639V67.3154H44.5021ZM53.7034 67.3154H52.4894L54.5997 63.9232C54.0248 63.8022 53.5786 63.5526 53.2609 63.1744C52.9508 62.7886 52.7958 62.3008 52.7958 61.7108C52.7958 60.0771 53.692 59.2602 55.4846 59.2602H59.7277V67.3154H58.6273V64.0707H55.7115L53.7034 67.3154ZM55.5186 63.0609H58.6273V60.2813H55.5186C55.0043 60.2813 54.611 60.3948 54.3387 60.6217C54.0664 60.841 53.9303 61.2041 53.9303 61.7108C53.9303 62.6109 54.4597 63.0609 55.5186 63.0609ZM64.4375 60.2813V59.2602H72.2317V60.2813H68.8848V67.3154H67.7844V60.2813H64.4375ZM73.929 67.3154V59.2602H80.237V60.2813H75.0181V62.5277H78.1381V63.5488H75.0181V66.2944H80.6908V67.3154H73.929ZM82.4269 67.3154V59.2602H89.461V67.3154H88.3605V60.2813H83.5274V67.3154H82.4269ZM94.1108 60.2813L93.7591 64.0026C93.6457 65.2052 93.4415 66.0485 93.1465 66.5326C92.7986 67.0999 92.2275 67.3835 91.4333 67.3835H91.161V66.3057H91.3539C91.7397 66.3057 92.0157 66.196 92.1821 65.9767C92.3561 65.7498 92.4847 65.4283 92.5679 65.0123C92.6284 64.672 92.6813 64.2938 92.7267 63.8778L93.1578 59.2602H99.0687V67.3154H97.9682V60.2813H94.1108ZM101.561 67.3154V59.2602H102.662V65.8405L107.71 59.2602H108.811V67.3154H107.71V60.7124L102.662 67.3154H101.561ZM117.245 66.2944V59.2602H118.345V66.2944H119.593V69.142H118.606V67.3154H111.311V59.2602H112.411V66.2944H117.245ZM124.074 67.3154V59.2602H131.109V67.3154H130.008V60.2813H125.175V67.3154H124.074ZM132.809 60.2813V59.2602H140.603V60.2813H137.256V67.3154H136.155V60.2813H132.809ZM145.366 59.1241C145.767 59.1241 146.149 59.1581 146.512 59.2262C146.875 59.2943 147.227 59.4077 147.567 59.5666C147.915 59.7178 148.191 59.9447 148.395 60.2473C148.607 60.5498 148.713 60.9129 148.713 61.3364C148.713 61.76 148.596 62.142 148.361 62.4823C148.134 62.8151 147.824 63.0382 147.431 63.1517C148.407 63.4467 148.894 64.0366 148.894 64.9216C148.894 65.3829 148.792 65.7876 148.588 66.1355C148.384 66.4759 148.108 66.7368 147.76 66.9183C147.42 67.0999 147.053 67.2322 146.659 67.3154C146.274 67.4062 145.861 67.4516 145.423 67.4516C144.712 67.4516 144.042 67.323 143.415 67.0658C142.787 66.8011 142.314 66.3965 141.996 65.8519C141.822 65.572 141.72 65.2884 141.69 65.001H142.825C142.983 65.4775 143.313 65.833 143.812 66.0674C144.311 66.3019 144.844 66.4191 145.411 66.4191C145.691 66.4191 145.952 66.4002 146.194 66.3624C146.444 66.317 146.693 66.2452 146.943 66.1469C147.2 66.0485 147.401 65.8973 147.544 65.693C147.696 65.4813 147.771 65.2279 147.771 64.9329C147.771 64.1236 147.087 63.719 145.718 63.719H144.538V62.7092H145.763C146.973 62.7092 147.578 62.2705 147.578 61.3932C147.578 60.5687 146.837 60.1565 145.355 60.1565C144.137 60.1565 143.305 60.5952 142.859 61.4726H141.701C141.822 60.9583 142.065 60.5234 142.428 60.1679C142.798 59.8124 143.248 59.5401 143.778 59.351C144.231 59.1997 144.761 59.1241 145.366 59.1241Z" fill="white"/>
<path d="M63.1579 46.8569C63.1579 42.6692 61.4944 38.6531 58.5333 35.692C55.5722 32.7309 51.5561 31.0674 47.3684 31.0674C43.1808 31.0674 39.1647 32.7309 36.2036 35.692C33.2425 38.6531 31.5789 42.6692 31.5789 46.8569" stroke="#F44740" stroke-width="6.31579"/>
<path d="M80.6391 46.8565C80.6391 40.4255 78.0547 34.2579 73.4544 29.7105C68.8541 25.1631 62.6148 22.6084 56.109 22.6084C49.6032 22.6084 43.3639 25.1631 38.7636 29.7105C34.1634 34.2579 31.5789 40.4255 31.5789 46.8565" stroke="#F44740" stroke-width="6.31579"/>
<path d="M100.376 46.857C100.376 37.8836 96.7518 29.2776 90.3009 22.9324C83.8499 16.5872 75.1005 13.0225 65.9774 13.0225C56.8544 13.0225 48.105 16.5872 41.654 22.9324C35.2031 29.2776 31.579 37.8836 31.5789 46.857" stroke="#F44740" stroke-width="6.31579"/>
<path d="M118.421 46.8571C118.421 35.4907 113.846 24.5898 105.703 16.5526C97.5603 8.51529 86.516 4 75 4C63.484 4 52.4397 8.51529 44.2967 16.5526C36.1537 24.5898 31.579 35.4907 31.5789 46.8571" stroke="#F44740" stroke-width="6.31579"/>
</svg>
