<svg width="220" height="76" viewBox="0 0 220 76" fill="none" xmlns="http://www.w3.org/2000/svg">
<path d="M1.22811 71.6552V60.0291H11.6916V62.9111H4.58493V71.6552H1.22811ZM21.0879 71.6552L20.4165 70.0177H15.2748L14.6035 71.6552H11.1975L16.1591 60.0291H19.7779L24.7067 71.6552H21.0879ZM16.4211 67.2667H19.2703L17.8457 63.7953L16.4211 67.2667ZM30.7118 62.9438L30.3024 66.8083C30.2151 67.6925 30.0841 68.4294 29.9094 69.0188C29.7456 69.5974 29.4891 70.1105 29.1398 70.5581C28.7904 70.9947 28.3265 71.3168 27.7479 71.5242C27.1803 71.7207 26.4707 71.8189 25.6192 71.8189H25.3572V68.4621H25.6028C25.9085 68.4621 26.1432 68.4239 26.3069 68.3475C26.7982 68.1728 27.0929 67.5833 27.1912 66.579L27.8789 60.0291H37.5891V71.6552H34.2323V62.9438H30.7118ZM40.0382 71.6552V60.0291H50.0595V62.7309H43.395V64.2538H47.3577V67.0211H43.395V68.806H50.6982V71.6552H40.0382ZM52.4472 71.6552V60.0291H59.5866C60.9293 60.0291 61.9828 60.3566 62.7469 61.0116C63.522 61.6666 63.9095 62.6545 63.9095 63.9754C63.9095 65.2963 63.522 66.2843 62.7469 66.9393C61.9828 67.5942 60.9293 67.9217 59.5866 67.9217H55.7876V71.6552H52.4472ZM59.1772 62.9111H55.7876V65.0398H59.1772C60.0396 65.0398 60.4708 64.685 60.4708 63.9754C60.4708 63.2658 60.0396 62.9111 59.1772 62.9111ZM65.7677 71.6552V60.0291H75.789V62.7309H69.1245V64.2538H73.0872V67.0211H69.1245V68.806H76.4276V71.6552H65.7677ZM81.1405 71.6552H77.6036L80.158 67.1685C79.3829 66.9174 78.7935 66.5081 78.3895 65.9404C77.9856 65.3727 77.7837 64.6795 77.7837 63.8608C77.7837 62.5836 78.1767 61.6284 78.9627 60.9952C79.7486 60.3511 80.7803 60.0291 82.0575 60.0291H89.1805V71.6552H85.8237V67.6106H83.4166L81.1405 71.6552ZM82.4832 64.8269H85.8237V62.8619H82.4832C81.6427 62.8619 81.2224 63.1894 81.2224 63.8444C81.2224 64.4994 81.6427 64.8269 82.4832 64.8269ZM94.9507 62.9111V60.0291H106.708V62.9111H102.499V71.6552H99.159V62.9111H94.9507ZM108.464 71.6552V60.0291H118.485V62.7309H111.82V64.2538H115.783V67.0211H111.82V68.806H119.124V71.6552H108.464ZM120.873 71.6552V60.0291H132.384V71.6552H129.027V62.9438H124.229V71.6552H120.873ZM139.45 62.9438L139.041 66.8083C138.954 67.6925 138.823 68.4294 138.648 69.0188C138.484 69.5974 138.228 70.1105 137.878 70.5581C137.529 70.9947 137.065 71.3168 136.487 71.5242C135.919 71.7207 135.209 71.8189 134.358 71.8189H134.096V68.4621H134.341C134.647 68.4621 134.882 68.4239 135.046 68.3475C135.537 68.1728 135.832 67.5833 135.93 66.579L136.618 60.0291H146.328V71.6552H142.971V62.9438H139.45ZM148.777 71.6552V60.0291H152.134V67.0375L157.259 60.0291H160.616V71.6552H157.259V64.6795L152.134 71.6552H148.777ZM171.227 68.7405V60.0291H174.584V68.7405H176.222V74.3079H173.192V71.6552H163.073V60.0291H166.43V68.7405H171.227ZM181.622 71.6552V60.0291H193.134V71.6552H189.777V62.9438H184.979V71.6552H181.622ZM194.878 62.9111V60.0291H206.635V62.9111H202.427V71.6552H199.087V62.9111H194.878ZM213.631 59.8326C214.242 59.8326 214.826 59.8817 215.383 59.98C215.951 60.0782 216.513 60.242 217.07 60.4712C217.637 60.6896 218.09 61.0334 218.429 61.5028C218.767 61.9613 218.937 62.5126 218.937 63.1567C218.937 63.7353 218.767 64.2429 218.429 64.6795C218.101 65.1162 217.665 65.4273 217.119 65.6129C217.414 65.7002 217.681 65.8039 217.921 65.924C218.806 66.448 219.248 67.1467 219.248 68.02C219.248 68.7623 219.078 69.4009 218.74 69.9358C218.402 70.4598 217.943 70.8528 217.365 71.1148C216.786 71.3768 216.191 71.5624 215.58 71.6716C214.968 71.7916 214.308 71.8517 213.598 71.8517C212.408 71.8517 211.306 71.6224 210.291 71.1639C209.286 70.7054 208.56 69.9959 208.113 69.0352C207.916 68.5986 207.807 68.1947 207.785 67.8235H211.109C211.251 68.1401 211.497 68.3911 211.846 68.5767C212.217 68.8169 212.801 68.937 213.598 68.937C215.072 68.937 215.809 68.5876 215.809 67.889C215.809 67.3432 215.219 67.0703 214.04 67.0703H212.256V64.4503H213.926C214.985 64.4503 215.514 64.1828 215.514 63.6479C215.514 63.0475 214.87 62.7473 213.582 62.7473C212.381 62.7473 211.59 63.0148 211.208 63.5497H207.884C207.971 62.6873 208.32 61.9722 208.932 61.4046C209.554 60.8369 210.312 60.4166 211.208 60.1437C211.874 59.9363 212.681 59.8326 213.631 59.8326Z" fill="white"/>
<path d="M33.3793 45.1823C33.3793 41.1583 31.7807 37.2992 28.9354 34.4538C26.09 31.6084 22.2308 30.0099 18.2068 30.0099C14.1829 30.0099 10.3237 31.6084 7.47832 34.4538C4.63294 37.2992 3.03442 41.1583 3.03442 45.1823" stroke="#F44740" stroke-width="6.06897"/>
<path d="M50.1773 45.1823C50.1773 39.0026 47.6939 33.076 43.2734 28.7063C38.8529 24.3366 32.8574 21.8818 26.6059 21.8818C20.3543 21.8818 14.3588 24.3366 9.93834 28.7063C5.51784 33.076 3.03442 39.0026 3.03442 45.1823" stroke="#F44740" stroke-width="6.06897"/>
<path d="M69.1428 45.1823C69.1428 36.5595 65.6603 28.2899 59.4615 22.1927C53.2626 16.0954 44.8551 12.67 36.0886 12.67C27.3221 12.67 18.9146 16.0954 12.7158 22.1926C6.51691 28.2899 3.03443 36.5595 3.03442 45.1823" stroke="#F44740" stroke-width="6.06897"/>
<path d="M86.4827 45.1823C86.4827 34.2601 82.0868 23.7852 74.262 16.062C66.4372 8.33883 55.8245 4 44.7586 4C33.6926 4 23.0799 8.33883 15.2551 16.062C7.43035 23.7852 3.03443 34.26 3.03442 45.1823" stroke="#F44740" stroke-width="6.06897"/>
</svg>
