<svg width="44" height="36" viewBox="0 0 44 36" fill="none" xmlns="http://www.w3.org/2000/svg">
<path d="M2 7.85352L18.3298 19.2844C19.6522 20.21 20.3134 20.6729 21.0325 20.8521C21.6678 21.0105 22.3322 21.0105 22.9675 20.8521C23.6866 20.6729 24.3478 20.21 25.6702 19.2844L42 7.85352M11.6 33.8535H32.4C35.7603 33.8535 37.4405 33.8535 38.7239 33.1996C39.8529 32.6243 40.7708 31.7064 41.346 30.5775C42 29.294 42 27.6138 42 24.2535V11.4535C42 8.0932 42 6.41304 41.346 5.12957C40.7708 4.0006 39.8529 3.08272 38.7239 2.50748C37.4405 1.85352 35.7603 1.85352 32.4 1.85352H11.6C8.23969 1.85352 6.55953 1.85352 5.27606 2.50748C4.14708 3.08272 3.2292 4.0006 2.65396 5.12957C2 6.41304 2 8.0932 2 11.4535V24.2535C2 27.6138 2 29.294 2.65396 30.5775C3.2292 31.7064 4.14708 32.6243 5.27606 33.1996C6.55953 33.8535 8.23969 33.8535 11.6 33.8535Z" stroke="#F44740" stroke-width="3" stroke-linecap="round" stroke-linejoin="round"/>
</svg>
