<svg width="32" height="32" viewBox="0 0 32 32" fill="none" xmlns="http://www.w3.org/2000/svg">
<path d="M9.78869 11.1562C10.9109 13.4936 12.4408 15.6843 14.3783 17.6217C16.3157 19.5592 18.5064 21.0891 20.8438 22.2113C21.0449 22.3078 21.1454 22.3561 21.2726 22.3932C21.7247 22.525 22.2798 22.4303 22.6626 22.1562C22.7703 22.079 22.8625 21.9869 23.0468 21.8026C23.6105 21.2388 23.8924 20.957 24.1758 20.7727C25.2447 20.0778 26.6226 20.0778 27.6915 20.7727C27.9749 20.957 28.2568 21.2388 28.8205 21.8026L29.1347 22.1168C29.9916 22.9737 30.4201 23.4021 30.6528 23.8623C31.1157 24.7774 31.1157 25.8582 30.6528 26.7734C30.4201 27.2335 29.9916 27.662 29.1347 28.5189L28.8805 28.7731C28.0266 29.627 27.5996 30.054 27.0191 30.3801C26.3749 30.742 25.3744 31.0022 24.6355 31C23.9697 30.998 23.5146 30.8688 22.6045 30.6105C17.7133 29.2223 13.098 26.6029 9.24754 22.7525C5.39708 18.902 2.77773 14.2867 1.38948 9.39552C1.13116 8.48539 1.00199 8.03032 1.00001 7.36447C0.997815 6.62562 1.258 5.62512 1.61986 4.98095C1.94597 4.40042 2.37296 3.97343 3.22694 3.11945L3.48112 2.86528C4.33803 2.00836 4.76649 1.57991 5.22664 1.34716C6.1418 0.88428 7.22255 0.88428 8.13771 1.34716C8.59786 1.57991 9.02632 2.00836 9.88323 2.86528L10.1974 3.17949C10.7612 3.74321 11.043 4.02506 11.2273 4.30849C11.9222 5.37736 11.9222 6.75531 11.2273 7.82417C11.043 8.1076 10.7612 8.38946 10.1974 8.95318C10.0131 9.1375 9.92097 9.22966 9.84383 9.33739C9.5697 9.72023 9.47504 10.2753 9.60682 10.7274C9.6439 10.8546 9.69216 10.9551 9.78869 11.1562Z" stroke="white" stroke-width="2" stroke-linecap="round" stroke-linejoin="round"/>
</svg>
