<svg width="45" height="45" viewBox="0 0 45 45" fill="none" xmlns="http://www.w3.org/2000/svg">
<path d="M13.1499 44.9995C20.4124 44.9995 26.2998 38.6533 26.2998 30.8247C26.2998 22.9961 20.4124 16.6499 13.1499 16.6499C5.88732 16.6499 0 22.9961 0 30.8247C0 38.6533 5.88732 44.9995 13.1499 44.9995Z" fill="#E5E9EA"/>
<path d="M37.0548 43.2065C41.4429 43.2065 45 39.3724 45 34.6423C45 29.9123 41.4429 26.0781 37.0548 26.0781C32.6673 26.0781 29.1101 29.9123 29.1101 34.6423C29.1101 39.3724 32.667 43.2065 37.0548 43.2065Z" fill="#E5E9EA"/>
<path d="M15.6638 13.6201C18.3797 13.6201 20.5814 11.2468 20.5814 8.31946C20.5814 5.39186 18.3797 3.01855 15.6638 3.01855C12.9479 3.01855 10.7465 5.39186 10.7465 8.31946C10.7465 11.2468 12.9479 13.6201 15.6638 13.6201Z" fill="#E5E9EA"/>
<path d="M33.9665 23.049C39.8711 23.049 44.6578 17.8894 44.6578 11.5246C44.6578 5.15952 39.8711 0 33.9665 0C28.0616 0 23.2751 5.15982 23.2751 11.5246C23.2751 17.8894 28.0619 23.049 33.9665 23.049Z" fill="#E5E9EA"/>
</svg>
