<svg width="41" height="41" viewBox="0 0 41 41" fill="none" xmlns="http://www.w3.org/2000/svg">
<path fill-rule="evenodd" clip-rule="evenodd" d="M9.44709 0.143838C9.26199 0.238414 9.00817 0.459741 8.88306 0.635529L8.6556 0.955236L8.60433 8.34612L8.55305 15.7371L4.76328 17.877C2.67893 19.054 0.845016 20.1124 0.687806 20.2288C0.530595 20.3454 0.307649 20.626 0.192382 20.8525C-0.00902781 21.2483 -0.0161037 21.4096 0.0119952 24.9954L0.0413247 28.7265L0.319546 29.1477C0.541671 29.4841 0.944593 29.775 2.31929 30.5912C9.12662 34.6336 19.0054 40.4618 19.4595 40.7036C20.2326 41.115 20.8017 41.1001 21.6454 40.6464C22.0026 40.4542 26.3559 37.8936 31.3194 34.9561C39.2618 30.2555 40.3808 29.563 40.6515 29.1801L40.9591 28.7452L40.9885 25.0047C41.0161 21.4738 41.0065 21.2425 40.819 20.8757C40.7096 20.662 40.5118 20.3907 40.3794 20.2729C40.247 20.155 38.3044 19.0264 36.0623 17.7647L31.9859 15.4707V8.32977C31.9859 1.29992 31.9827 1.18304 31.7739 0.815017C31.4275 0.204593 31.1099 0.0300392 30.3451 0.0300392C29.8199 0.0300392 29.6105 0.0786633 29.3579 0.259282C28.6862 0.739665 28.7043 0.541879 28.7043 7.37003C28.7043 10.7681 28.6773 13.5482 28.6443 13.5482C28.6114 13.5482 27.1347 12.7288 25.3627 11.7272L22.141 9.90631V5.5476C22.141 1.33035 22.1342 1.17667 21.929 0.815017C21.5827 0.204593 21.2651 0.0300392 20.5002 0.0300392C19.975 0.0300392 19.7657 0.0786633 19.513 0.259282C18.8603 0.725993 18.8594 0.733291 18.8594 5.55305V9.91422L15.3983 11.8694L11.9372 13.8246L11.886 7.44127C11.8381 1.48301 11.8222 1.03748 11.6466 0.749636C11.3429 0.251881 10.9807 0.0437114 10.3523 0.00598393C9.96579 -0.0172488 9.67588 0.0268522 9.44709 0.143838ZM15.3534 15.7541L11.8987 17.707L11.8667 19.4569C11.8321 21.3486 11.8024 21.4554 11.181 21.9252C10.7809 22.2279 9.93944 22.2559 9.45991 21.9827C8.82143 21.619 8.66155 21.3197 8.6194 20.4101C8.5992 19.9719 8.56895 19.6134 8.55223 19.6134C8.49409 19.6134 4.86081 21.6811 4.78338 21.7582C4.74062 21.8008 4.99443 21.9976 5.34741 22.1956C5.70039 22.3935 9.2263 24.4146 13.1826 26.687C17.139 28.9593 20.4331 30.8185 20.5028 30.8185C20.5725 30.8185 24.1548 28.7948 28.4636 26.3213C35.1602 22.4771 36.2727 21.8059 36.1259 21.6982C35.8896 21.5251 32.1343 19.4078 32.0635 19.4078C32.0321 19.4078 31.9902 19.8126 31.9704 20.3073C31.9325 21.26 31.824 21.5147 31.281 21.9252C30.8808 22.2279 30.0394 22.2559 29.5599 21.9827C28.7984 21.549 28.7618 21.4353 28.7043 19.3271L28.653 17.4474L25.4227 15.6218L22.1923 13.7961L22.141 20.3798C22.0918 26.6979 22.0818 26.9741 21.8905 27.2264C21.5446 27.6826 21.2022 27.8731 20.645 27.9195C20.0355 27.9702 19.4735 27.7202 19.1158 27.2392C18.9171 26.9721 18.9092 26.7608 18.8594 20.3823L18.8081 13.8011L15.3534 15.7541ZM3.27486 26.0729L3.27793 27.2719L11.8121 32.3091C16.5059 35.0796 20.4176 37.3463 20.5047 37.3463C20.5918 37.3463 24.5016 35.0796 29.193 32.3091L37.7228 27.2719L37.7258 26.1044C37.7284 25.1142 37.7057 24.9458 37.5767 24.9954C37.4931 25.0276 33.9281 27.0613 29.6546 29.5147C25.3811 31.9682 21.6903 34.0748 21.4529 34.196C21.1719 34.3395 20.8309 34.4165 20.4763 34.4165C19.8315 34.4165 20.6668 34.8677 10.5272 29.0422L3.27168 24.8738L3.27486 26.0729Z" fill="black"/>
</svg>
