<svg width="50" height="37" viewBox="0 0 50 37" fill="none" xmlns="http://www.w3.org/2000/svg">
<path d="M49.0671 0.98C48.2014 4.63524 47.2876 8.57905 46.3257 12.8114C45.3638 17.0438 44.4981 21.18 43.7286 25.22C42.959 29.26 42.3338 32.9633 41.8529 36.33H28.1457L27.1357 34.7429C28.0014 31.3762 29.1076 27.769 30.4543 23.9214C31.801 19.9776 33.2919 16.0338 34.9271 12.09C36.5624 8.14619 38.1495 4.44286 39.6886 0.98H49.0671ZM22.3743 0.98C21.5086 4.63524 20.5948 8.57905 19.6329 12.8114C18.671 17.0438 17.8052 21.18 17.0357 25.22C16.2662 29.26 15.641 32.9633 15.16 36.33H1.59714L0.731428 34.7429C1.59714 31.3762 2.70333 27.769 4.05 23.9214C5.39667 19.9776 6.83952 16.0338 8.37857 12.09C10.0138 8.14619 11.601 4.44286 13.14 0.98H22.3743Z" fill="#5179BB"/>
</svg>
