<svg width="315" height="69" viewBox="0 0 315 69" fill="none" xmlns="http://www.w3.org/2000/svg">
<path d="M74.0592 12.0877L65.1284 17.81C68.1715 17.81 74.0592 19.3315 74.0592 24.4915C74.0592 31.3715 63.4415 32 58.48 32V28.8577C61.3246 28.8577 70.8508 28.5269 70.8508 24.4915C70.8508 21.68 66.65 20.82 62.9784 20.82C61.5561 20.82 60.2 20.9523 59.2077 21.1508V17.7769L68.1715 12.0546H58.48V8.84615H74.0592V12.0877ZM95.9014 32H92.5937L90.5429 24.6569H81.7444L79.7267 32H76.3529L82.836 8.84615H89.4514L95.9014 32ZM85.2506 12.0546L82.6375 21.4485H89.6498L87.0367 12.0546H85.2506ZM114.093 28.7915V32C105.99 32 98.8119 30.4454 98.8119 20.4231C98.8119 10.3346 105.956 8.87923 114.093 8.87923L114.06 12.0877C106.75 12.1208 102.02 13.7085 102.02 20.4231C102.02 26.7738 106.717 28.4608 114.093 28.7915ZM117.817 8.84615H135.117V12.0546H128.237V32H125.028V12.0546H117.817V8.84615ZM152.25 15.5938C152.25 21.4154 145.635 22.6723 141.566 22.8046V32H138.358V8.84615H139.218C144.014 8.84615 152.25 8.87923 152.25 15.5938ZM141.566 12.0215V19.6292C144.708 19.6292 149.075 18.9346 149.075 15.5938C149.075 12.8154 145.039 12.0215 141.566 12.0215ZM173.002 20.3238C173.002 28.7254 168.106 32.2977 163.31 32.2977C157.952 32.2977 153.652 27.5346 153.652 20.3238C153.652 12.7162 157.919 8.51538 163.409 8.51538C169.099 8.51538 173.002 13.3777 173.002 20.3238ZM157.025 20.3238C157.025 25.3185 159.804 28.8577 163.31 28.8577C166.75 28.8577 169.661 25.4508 169.661 20.3238C169.661 16.4869 167.643 11.6908 163.409 11.6908C159.142 11.6908 157.025 16.0238 157.025 20.3238ZM190.093 13.9731V8.84615H193.301V32H190.093V18.5046L180.93 27.6669V32H177.722V8.84615H180.93V23.1354L190.093 13.9731ZM190.093 7.19231H180.93V4.31461H190.093V7.19231ZM214.038 19.4638V20.4562L214.071 32H210.863L210.829 22.7054H202.461V32H199.253V8.84615H202.461V17.1815L210.829 8.84615H215.361L204.677 19.4969L214.038 19.4638ZM236.672 32H233.364L231.314 24.6569H222.515L220.497 32H217.124L223.607 8.84615H230.222L236.672 32ZM226.021 12.0546L223.408 21.4485H230.421L227.807 12.0546H226.021ZM238.69 28.7915L254.732 28.8577V32H238.69V28.7915ZM274.75 8.84615V32H271.542V12.0546H261.916V32H258.708V8.84615H274.75ZM278.68 8.84615H295.979V12.0546H289.099V32H285.891V12.0546H278.68V8.84615ZM313.609 12.0877L304.678 17.81C307.721 17.81 313.609 19.3315 313.609 24.4915C313.609 31.3715 302.991 32 298.029 32V28.8577C300.874 28.8577 310.4 28.5269 310.4 24.4915C310.4 21.68 306.199 20.82 302.528 20.82C301.105 20.82 299.749 20.9523 298.757 21.1508V17.7769L307.721 12.0546H298.029V8.84615H313.609V12.0877Z" fill="black"/>
<path fill-rule="evenodd" clip-rule="evenodd" d="M9.44709 0.143838C9.26199 0.238414 9.00817 0.459741 8.88306 0.635529L8.6556 0.955236L8.60433 8.34612L8.55305 15.7371L4.76328 17.877C2.67893 19.054 0.845016 20.1124 0.687806 20.2288C0.530595 20.3454 0.307649 20.626 0.192382 20.8525C-0.00902781 21.2483 -0.0161037 21.4096 0.0119952 24.9954L0.0413247 28.7265L0.319546 29.1477C0.541671 29.4841 0.944593 29.775 2.31929 30.5912C9.12662 34.6336 19.0054 40.4618 19.4595 40.7036C20.2326 41.115 20.8017 41.1001 21.6454 40.6464C22.0026 40.4542 26.3559 37.8936 31.3194 34.9561C39.2618 30.2555 40.3808 29.563 40.6515 29.1801L40.9591 28.7452L40.9885 25.0047C41.0161 21.4738 41.0065 21.2425 40.819 20.8757C40.7096 20.662 40.5118 20.3907 40.3794 20.2729C40.247 20.155 38.3044 19.0264 36.0623 17.7647L31.9859 15.4707V8.32977C31.9859 1.29992 31.9827 1.18304 31.7739 0.815017C31.4275 0.204593 31.1099 0.0300392 30.3451 0.0300392C29.8199 0.0300392 29.6105 0.0786633 29.3579 0.259282C28.6862 0.739665 28.7043 0.541879 28.7043 7.37003C28.7043 10.7681 28.6773 13.5482 28.6443 13.5482C28.6114 13.5482 27.1347 12.7288 25.3627 11.7272L22.141 9.90631V5.5476C22.141 1.33035 22.1342 1.17667 21.929 0.815017C21.5827 0.204593 21.2651 0.0300392 20.5002 0.0300392C19.975 0.0300392 19.7657 0.0786633 19.513 0.259282C18.8603 0.725993 18.8594 0.733291 18.8594 5.55305V9.91422L15.3983 11.8694L11.9372 13.8246L11.886 7.44127C11.8381 1.48301 11.8222 1.03748 11.6466 0.749636C11.3429 0.251881 10.9807 0.0437114 10.3523 0.00598393C9.96579 -0.0172488 9.67588 0.0268522 9.44709 0.143838ZM15.3534 15.7541L11.8987 17.707L11.8667 19.4569C11.8321 21.3486 11.8024 21.4554 11.181 21.9252C10.7809 22.2279 9.93944 22.2559 9.45991 21.9827C8.82143 21.619 8.66155 21.3197 8.6194 20.4101C8.5992 19.9719 8.56895 19.6134 8.55223 19.6134C8.49409 19.6134 4.86081 21.6811 4.78338 21.7582C4.74062 21.8008 4.99443 21.9976 5.34741 22.1956C5.70039 22.3935 9.2263 24.4146 13.1826 26.687C17.139 28.9593 20.4331 30.8185 20.5028 30.8185C20.5725 30.8185 24.1548 28.7948 28.4636 26.3213C35.1602 22.4771 36.2727 21.8059 36.1259 21.6982C35.8896 21.5251 32.1343 19.4078 32.0635 19.4078C32.0321 19.4078 31.9902 19.8126 31.9704 20.3073C31.9325 21.26 31.824 21.5147 31.281 21.9252C30.8808 22.2279 30.0394 22.2559 29.5599 21.9827C28.7984 21.549 28.7618 21.4353 28.7043 19.3271L28.653 17.4474L25.4227 15.6218L22.1923 13.7961L22.141 20.3798C22.0918 26.6979 22.0818 26.9741 21.8905 27.2264C21.5446 27.6826 21.2022 27.8731 20.645 27.9195C20.0355 27.9702 19.4735 27.7202 19.1158 27.2392C18.9171 26.9721 18.9092 26.7608 18.8594 20.3823L18.8081 13.8011L15.3534 15.7541ZM3.27486 26.0729L3.27793 27.2719L11.8121 32.3091C16.5059 35.0796 20.4176 37.3463 20.5047 37.3463C20.5918 37.3463 24.5016 35.0796 29.193 32.3091L37.7228 27.2719L37.7258 26.1044C37.7284 25.1142 37.7057 24.9458 37.5767 24.9954C37.4931 25.0276 33.9281 27.0613 29.6546 29.5147C25.3811 31.9682 21.6903 34.0748 21.4529 34.196C21.1719 34.3395 20.8309 34.4165 20.4763 34.4165C19.8315 34.4165 20.6668 34.8677 10.5272 29.0422L3.27168 24.8738L3.27486 26.0729Z" fill="black"/>
<path d="M148.864 61.186H152.59V57.46H153.706V61.186H157.432V62.302H153.706V66.028H152.59V62.302H148.864V61.186ZM159.075 54.22H167.949V55.426C165.321 58.63 163.539 62.77 163.539 67H162.243C162.243 62.788 163.935 58.63 166.581 55.408H159.075V54.22ZM177.527 53.5C174.665 58.666 174.665 63.814 177.527 68.98H176.447C173.315 63.94 173.315 58.54 176.447 53.5H177.527ZM179.527 58.468C179.527 55.714 181.345 53.932 183.937 53.932C185.107 53.932 186.259 54.364 187.141 55.318C188.023 56.272 188.437 57.802 188.437 59.854C188.437 63.562 187.303 67.288 183.667 67.288C181.849 67.288 180.373 66.316 179.797 64.624L181.093 64.516C181.507 65.506 182.479 66.082 183.667 66.082C185.773 66.082 187.051 64.156 187.195 60.844C186.493 62.122 185.233 62.878 183.757 62.878C181.237 62.878 179.527 61.06 179.527 58.468ZM180.823 58.468C180.823 60.34 182.065 61.654 183.829 61.654C185.719 61.654 187.069 60.34 187.087 58.468C187.123 56.56 185.791 55.138 183.901 55.138C182.101 55.138 180.823 56.524 180.823 58.468ZM198.77 54.22V55.408H192.992L192.362 59.836C193.01 59.008 194.216 58.504 195.404 58.504C197.87 58.504 199.634 60.34 199.634 62.896C199.634 65.47 197.798 67.288 195.26 67.288C192.794 67.288 190.922 65.83 190.724 63.76L192.002 63.67C192.218 65.182 193.586 66.082 195.296 66.082C197.114 66.082 198.338 64.768 198.338 62.896C198.338 60.952 197.078 59.674 195.134 59.674C193.856 59.674 192.758 60.286 192.272 61.312H190.922L191.912 54.22H198.77ZM206.17 59.584C207.646 59.602 209.086 58.882 209.086 57.262C209.086 55.984 207.952 55.138 206.188 55.138C204.766 55.138 203.704 55.894 203.506 57.046L202.228 56.956C202.48 55.192 204.118 53.932 206.188 53.932C208.672 53.932 210.382 55.3 210.382 57.262C210.382 58.63 209.554 59.638 208.024 60.088C209.788 60.61 210.814 61.87 210.814 63.49C210.814 65.722 208.906 67.288 206.17 67.288C203.668 67.288 201.868 65.848 201.724 63.76L202.984 63.67C203.146 65.29 204.622 66.082 206.17 66.082C207.934 66.082 209.536 65.2 209.536 63.382C209.536 61.654 207.934 60.736 206.17 60.754L205.108 60.772V59.566L206.17 59.584ZM213.735 53.5C216.867 58.54 216.867 63.94 213.735 68.98H212.655C215.517 63.814 215.517 58.666 212.655 53.5H213.735ZM230.639 54.22V55.408H224.861L224.231 59.836C224.879 59.008 226.085 58.504 227.273 58.504C229.739 58.504 231.503 60.34 231.503 62.896C231.503 65.47 229.667 67.288 227.129 67.288C224.663 67.288 222.791 65.83 222.593 63.76L223.871 63.67C224.087 65.182 225.455 66.082 227.165 66.082C228.983 66.082 230.207 64.768 230.207 62.896C230.207 60.952 228.947 59.674 227.003 59.674C225.725 59.674 224.627 60.286 224.141 61.312H222.791L223.781 54.22H230.639ZM238.039 59.584C239.515 59.602 240.955 58.882 240.955 57.262C240.955 55.984 239.821 55.138 238.057 55.138C236.635 55.138 235.573 55.894 235.375 57.046L234.097 56.956C234.349 55.192 235.987 53.932 238.057 53.932C240.541 53.932 242.251 55.3 242.251 57.262C242.251 58.63 241.423 59.638 239.893 60.088C241.657 60.61 242.683 61.87 242.683 63.49C242.683 65.722 240.775 67.288 238.039 67.288C235.537 67.288 233.737 65.848 233.593 63.76L234.853 63.67C235.015 65.29 236.491 66.082 238.039 66.082C239.803 66.082 241.405 65.2 241.405 63.382C241.405 61.654 239.803 60.736 238.039 60.754L236.977 60.772V59.566L238.039 59.584ZM244.434 54.22H253.308V55.426C250.68 58.63 248.898 62.77 248.898 67H247.602C247.602 62.788 249.294 58.63 251.94 55.408H244.434V54.22ZM254.948 61.258H260.69V62.374H254.948V61.258ZM266.955 59.584C268.431 59.602 269.871 58.882 269.871 57.262C269.871 55.984 268.737 55.138 266.973 55.138C265.551 55.138 264.489 55.894 264.291 57.046L263.013 56.956C263.265 55.192 264.903 53.932 266.973 53.932C269.457 53.932 271.167 55.3 271.167 57.262C271.167 58.63 270.339 59.638 268.809 60.088C270.573 60.61 271.599 61.87 271.599 63.49C271.599 65.722 269.691 67.288 266.955 67.288C264.453 67.288 262.653 65.848 262.509 63.76L263.769 63.67C263.931 65.29 265.407 66.082 266.955 66.082C268.719 66.082 270.321 65.2 270.321 63.382C270.321 61.654 268.719 60.736 266.955 60.754L265.893 60.772V59.566L266.955 59.584ZM277.976 59.584C279.452 59.602 280.892 58.882 280.892 57.262C280.892 55.984 279.758 55.138 277.994 55.138C276.572 55.138 275.51 55.894 275.312 57.046L274.034 56.956C274.286 55.192 275.924 53.932 277.994 53.932C280.478 53.932 282.188 55.3 282.188 57.262C282.188 58.63 281.36 59.638 279.83 60.088C281.594 60.61 282.62 61.87 282.62 63.49C282.62 65.722 280.712 67.288 277.976 67.288C275.474 67.288 273.674 65.848 273.53 63.76L274.79 63.67C274.952 65.29 276.428 66.082 277.976 66.082C279.74 66.082 281.342 65.2 281.342 63.382C281.342 61.654 279.74 60.736 277.976 60.754L276.914 60.772V59.566L277.976 59.584ZM284.462 61.258H290.204V62.374H284.462V61.258ZM297.008 67.288C293.966 67.288 292.04 64.714 292.04 60.628C292.04 56.506 293.966 53.932 297.008 53.932C300.05 53.932 301.976 56.506 301.976 60.628C301.976 64.714 300.05 67.288 297.008 67.288ZM293.336 60.628C293.336 64.066 294.686 66.082 297.008 66.082C299.33 66.082 300.68 64.066 300.68 60.628C300.68 57.172 299.33 55.138 297.008 55.138C294.686 55.138 293.336 57.172 293.336 60.628ZM308.891 67.288C305.849 67.288 303.923 64.714 303.923 60.628C303.923 56.506 305.849 53.932 308.891 53.932C311.933 53.932 313.859 56.506 313.859 60.628C313.859 64.714 311.933 67.288 308.891 67.288ZM305.219 60.628C305.219 64.066 306.569 66.082 308.891 66.082C311.213 66.082 312.563 64.066 312.563 60.628C312.563 57.172 311.213 55.138 308.891 55.138C306.569 55.138 305.219 57.172 305.219 60.628Z" fill="#312B2F"/>
</svg>
