<svg width="31" height="31" viewBox="0 0 31 31" fill="none" xmlns="http://www.w3.org/2000/svg">
<path d="M30 5.02778C30 18.8195 18.8195 30 5.02778 30C4.40553 30 3.78861 29.9773 3.17777 29.9325C2.47678 29.8811 2.12626 29.8555 1.80721 29.6718C1.54296 29.5197 1.29235 29.25 1.1599 28.9753C1 28.6438 1 28.2569 1 27.4834V22.9445C1 22.2939 1 21.9686 1.10706 21.6899C1.20163 21.4436 1.35523 21.2243 1.55438 21.0512C1.77983 20.8553 2.0855 20.7442 2.69684 20.5218L7.86341 18.6431C8.57469 18.3845 8.93032 18.2552 9.26774 18.2771C9.56526 18.2964 9.85157 18.3981 10.0948 18.5705C10.3707 18.7659 10.5654 19.0904 10.9548 19.7395L12.2778 21.9444C16.5471 20.011 20.0081 16.5455 21.9444 12.2778L19.7395 10.9548C19.0904 10.5654 18.7659 10.3707 18.5705 10.0948C18.3981 9.85157 18.2964 9.56526 18.2771 9.26774C18.2552 8.93032 18.3845 8.57469 18.6431 7.86341L20.5218 2.69684C20.7442 2.0855 20.8553 1.77983 21.0512 1.55438C21.2243 1.35523 21.4436 1.20163 21.6899 1.10706C21.9686 1 22.2939 1 22.9445 1H27.4834C28.2569 1 28.6438 1 28.9753 1.1599C29.25 1.29235 29.5197 1.54296 29.6718 1.80721C29.8555 2.12628 29.8811 2.47678 29.9325 3.17779C29.9773 3.78861 30 4.40553 30 5.02778Z" stroke="white" stroke-width="1.65714" stroke-linecap="round" stroke-linejoin="round"/>
</svg>
